<svg id="Layer_1" data-name="Layer 1" xmlns="http://www.w3.org/2000/svg" viewBox="0 0 163 77"><defs><style>.cls-1{fill:#1d617b;}</style></defs><path class="cls-1" d="M63.09,15.82c.55,0,1.1.09,1.66.09a1,1,0,0,1,.88.44l2.05,3.17a2,2,0,0,1,.12.44,2.09,2.09,0,0,1-.49.08c-1.66-.13-3.32-.34-5-.4a29,29,0,0,0-8.52,1.08,27.5,27.5,0,0,0-8.95,3.89,48.89,48.89,0,0,0-6.31,5.17c-1.36,1.33-2.66,2.74-4,4.07-2,2-4,4-6.15,5.85a28.69,28.69,0,0,1-3.94,2.89,35.86,35.86,0,0,1-4.66,2.48c-1.54.66-3.18,1.11-4.78,1.62A27.63,27.63,0,0,1,7,48c-1.62,0-3.24,0-4.85-.08a4.51,4.51,0,0,1-1.1-.17.62.62,0,0,1-.37-.39c-.24-1-.45-2.06-.64-3.1-.07-.39.07-.49.49-.4a23.85,23.85,0,0,0,4,.42,33.6,33.6,0,0,0,10.85-1.58,32,32,0,0,0,10.15-5.49,78.82,78.82,0,0,0,8.21-7.93,49.25,49.25,0,0,1,10.75-8.86A32.64,32.64,0,0,1,53.05,17a38.63,38.63,0,0,1,7.18-1c.18,0,.36-.05.55-.08Z"/><path class="cls-1" d="M10.8,15.82a3.35,3.35,0,0,0,.54.08,35.4,35.4,0,0,1,11.11,2.16,34.83,34.83,0,0,1,10.47,6l1.55,1.25a.4.4,0,0,1,0,.69l-2.06,2.06c-.19.19-.34.16-.54,0a38.27,38.27,0,0,0-5.15-3.81,27.48,27.48,0,0,0-6.71-3.05c-1.41-.4-2.83-.78-4.27-1.07a33.57,33.57,0,0,0-3.47-.44A24.6,24.6,0,0,0,5,20.13c-.12,0-.25,0-.45.06a2,2,0,0,1,.14-.49C5.4,18.52,6.17,17.34,7,16.18a1,1,0,0,1,.63-.25c.53-.06,1.07-.08,1.61-.11Z"/><path class="cls-1" d="M1.52,50.13a4.79,4.79,0,0,1,.55.09,22.44,22.44,0,0,0,5.71.64,29.27,29.27,0,0,0,6.59-.74,33.5,33.5,0,0,0,8-2.75,39.48,39.48,0,0,0,6.59-4.45,68.14,68.14,0,0,0,6.72-6.66,49,49,0,0,1,13.2-10.4,43.55,43.55,0,0,1,4.26-1.63,28.52,28.52,0,0,1,7.18-1.67,33.55,33.55,0,0,1,7.43,0c.43,0,.87.06,1.3.15a.73.73,0,0,1,.44.37c.44,1,.85,2,1.26,3.09.19.48.08.59-.45.53-1.73-.2-3.45-.45-5.18-.54a24.51,24.51,0,0,0-3.73.16A33,33,0,0,0,53.27,28a28.38,28.38,0,0,0-6.71,3.6A64,64,0,0,0,36.37,41a44.8,44.8,0,0,1-11.9,9.48,33.37,33.37,0,0,1-6.8,2.74,42,42,0,0,1-7.38,1.34,28.52,28.52,0,0,1-6.66-.18,1,1,0,0,1-.87-.73c-.28-.85-.65-1.67-1-2.52C1.69,50.82,1.63,50.52,1.52,50.13Z"/><path class="cls-1" d="M4.43,56.81C5,56.89,5.49,57,6,57c1.2.13,2.4.34,3.6.35a33,33,0,0,0,8.49-1.08,30.56,30.56,0,0,0,8.14-3.21,44,44,0,0,0,5.26-3.85A44.83,44.83,0,0,0,37,43.9a56.31,56.31,0,0,1,9.81-8.75,31.59,31.59,0,0,1,6.68-3.81A37.65,37.65,0,0,1,60,29.48a35.29,35.29,0,0,1,8.15-.57c1,0,2,.15,2.94.22a.64.64,0,0,1,.65.61c.15,1,.36,1.93.53,2.89.07.4,0,.45-.41.4-1.06-.11-2.11-.27-3.17-.29a46,46,0,0,0-5.25.06A32.64,32.64,0,0,0,57.4,34,26.94,26.94,0,0,0,47.74,39a68.05,68.05,0,0,0-8.19,7.55,33.77,33.77,0,0,1-2.88,3c-1.73,1.54-3.55,3-5.33,4.47a28.48,28.48,0,0,1-9.51,5.12,48.44,48.44,0,0,1-6,1.5,46.84,46.84,0,0,1-5.3.52,24.59,24.59,0,0,1-2.71-.07,1.3,1.3,0,0,1-1.11-.65c-.6-1-1.25-1.91-1.86-2.87A7.59,7.59,0,0,1,4.43,56.81Z"/><path class="cls-1" d="M86.81,22.94c-.06.26-.11.51-.17.76-.74,3.05-1.49,6.09-2.22,9.14-.07.27-.19.43-.51.42-.88,0-1.76,0-2.63,0-.36,0-.49-.13-.56-.46-.28-1.33-.56-2.66-.86-4Q78.65,23.38,77.41,18c-.06-.27-.08-.54-.13-.87h2.16a6.42,6.42,0,0,0,.76,0c.37-.05.49.15.55.46q.57,3,1.15,6.09c.25,1.34.51,2.67.77,4a.68.68,0,0,0,.18.37c.21-.89.43-1.79.64-2.68.62-2.61,1.24-5.23,1.84-7.84.07-.31.2-.42.51-.41.68,0,1.36,0,2,0,.36,0,.49.12.56.44.28,1.25.57,2.5.86,3.75l1.59,6.76c0,.05,0,.09.08.2.28-1.44.57-2.81.83-4.18.29-1.54.56-3.07.85-4.61L93,17.51c0-.2.06-.4.34-.4h3a.51.51,0,0,1,.12.05c-.16.75-.31,1.49-.48,2.24-1,4.4-2,8.81-2.94,13.21-.15.72,0,.63-.78.63s-1.62,0-2.43,0c-.28,0-.39-.08-.46-.35q-1.08-4.56-2.18-9.11c-.07-.29-.16-.57-.24-.86Z"/><path class="cls-1" d="M87.93,51.53l.26.12a3.51,3.51,0,0,1,2.18,3.66A6.56,6.56,0,0,1,90,57a4.16,4.16,0,0,1-3.38,2.63,9.19,9.19,0,0,1-1.81.19c-2,0-4,0-6.06,0-.37,0-.5-.1-.5-.49,0-5,0-10,0-15.08,0-.64,0-.65.65-.65,1.7,0,3.4,0,5.1,0a9.78,9.78,0,0,1,3.65.69,4.05,4.05,0,0,1,1.79,5.81,5.57,5.57,0,0,1-1,1A5.44,5.44,0,0,1,87.93,51.53ZM81.71,55c0,.59,0,1.19,0,1.79,0,.26.08.4.36.39,1,0,2,0,3-.07A1.87,1.87,0,0,0,87,55.13c0-1.16-.4-2.13-1.78-2.23-1.06-.08-2.14,0-3.22-.06-.24,0-.27.14-.27.34C81.71,53.77,81.71,54.37,81.71,55Zm0-6.53c0,.53,0,1.06,0,1.58,0,.3.08.45.4.44.86,0,1.72,0,2.58-.07a1.9,1.9,0,0,0,1.93-1.61c.07-1.38-.41-2.07-1.72-2.24-.94-.13-1.9-.1-2.85-.14-.26,0-.34.12-.34.37C81.71,47.32,81.71,47.88,81.71,48.44Z"/><path class="cls-1" d="M107.58,59.81V44.17c0-.54,0-.54.55-.54,1.37,0,2.74,0,4.11,0a8.83,8.83,0,0,1,3.75.75,7,7,0,0,1,3.89,5.44,11.58,11.58,0,0,1-.13,4.54,6.82,6.82,0,0,1-5.68,5.38,3.29,3.29,0,0,1-.62.08h-5.58Zm3.4-8c0,1.66,0,3.32,0,5,0,.32.1.43.41.41s.85,0,1.28,0a3.59,3.59,0,0,0,3.64-2.94,11.06,11.06,0,0,0,0-4.89,3.18,3.18,0,0,0-2.52-2.72,23.18,23.18,0,0,0-2.37-.2c-.35,0-.46.1-.45.45C111,48.49,111,50.13,111,51.77Z"/><path class="cls-1" d="M135.05,51.36v3.17c0,.95,0,1.91,0,2.86a1,1,0,0,1-.38.82,7.65,7.65,0,0,1-5.16,1.86,14.15,14.15,0,0,1-2.26-.13A6.48,6.48,0,0,1,122,54.59a15.55,15.55,0,0,1,0-5.65,6.29,6.29,0,0,1,5-5.34,8.5,8.5,0,0,1,4.47.27,5.07,5.07,0,0,1,3,2.9,15.22,15.22,0,0,1,.51,1.62c.1.33,0,.46-.37.45-.83,0-1.67,0-2.51,0-.3,0-.44-.1-.48-.39a1.1,1.1,0,0,0,0-.16,2.64,2.64,0,0,0-3-2.11,3,3,0,0,0-3,2.28,12.62,12.62,0,0,0-.36,4.37,6.75,6.75,0,0,0,.49,2.47,3.11,3.11,0,0,0,3,2,4.37,4.37,0,0,0,2.36-.42,1,1,0,0,0,.57-.95,14.76,14.76,0,0,1,0-1.63c0-.34-.13-.49-.46-.49l-2.11,0c-.49,0-.53,0-.54-.52s0-1,0-1.43,0-.58.62-.59h5.18C134.61,51.32,134.81,51.35,135.05,51.36Z"/><path class="cls-1" d="M104.94,49.7c0,1.71,0,3.42,0,5.13a4.83,4.83,0,0,1-3.19,4.69,7.64,7.64,0,0,1-6,0,4.85,4.85,0,0,1-3.23-4.69c-.08-3.6,0-7.21,0-10.82,0-.29.11-.41.4-.4h2.63c.26,0,.36.11.36.38,0,3.13,0,6.26,0,9.39a9.15,9.15,0,0,0,.21,2.09,2.25,2.25,0,0,0,2.29,1.83,5.55,5.55,0,0,0,1.08,0,2.31,2.31,0,0,0,2.06-2.43c0-3.22,0-6.44,0-9.67A10.14,10.14,0,0,1,101.6,44c0-.12.19-.31.29-.31.93,0,1.86,0,2.79,0,.32,0,.3.24.3.46V49.7Z"/><path class="cls-1" d="M62.93,61.1a34.07,34.07,0,0,1-6.38-.38,32.94,32.94,0,0,1-8.29-2.25,30.48,30.48,0,0,1-6.76-3.94c-1.17-.9-2.34-1.82-3.51-2.74-.52-.41-.5-.5-.05-1s1.1-1.14,1.64-1.73c.39-.41.56-.41,1,0a37.64,37.64,0,0,0,8.52,5.67A28.78,28.78,0,0,0,56,56.84a31,31,0,0,0,6.65.54c1.55-.07,3.09-.27,4.63-.41a2,2,0,0,1,.49,0,1.71,1.71,0,0,1-.12.47c-.67,1.05-1.36,2.09-2,3.13-.28.44-.73.45-1.16.48S63.45,61.1,62.93,61.1Z"/><path class="cls-1" d="M111.29,33.25H110l-1.75.05a.6.6,0,0,1-.67-.48c-.27-.86-.57-1.71-.84-2.57a.35.35,0,0,0-.39-.29q-2.61,0-5.22,0c-.28,0-.36.15-.43.37-.29.87-.57,1.74-.86,2.6,0,.12-.19.29-.29.3-1.1,0-2.2,0-3.36,0a3.3,3.3,0,0,1,.11-.45l5.65-15.22a.62.62,0,0,1,.69-.49c.73,0,1.46,0,2.19,0a.58.58,0,0,1,.66.47q1,2.64,2,5.28l3.66,9.75C111.16,32.79,111.21,33,111.29,33.25Zm-9.53-6.13a.83.83,0,0,0,.2.08h3.38c.32,0,.29-.19.22-.41-.41-1.22-.82-2.44-1.22-3.65l-.54-1.64-.15,0Z"/><path class="cls-1" d="M141,50.17l.54,0h5.38c.36,0,.49.09.47.47,0,.59,0,1.19,0,1.79,0,.35-.12.46-.46.45-1.81,0-3.61,0-5.42,0-.39,0-.53.07-.52.5,0,1.09,0,2.17,0,3.26,0,.38.1.5.49.5,2.13,0,4.27,0,6.41,0,.68,0,.68,0,.68.7,0,.53,0,1.06,0,1.59,0,.32-.16.45-.47.45-3.35,0-6.69,0-10,0-.4,0-.47-.14-.47-.51,0-5,0-10.05,0-15.08,0-.64,0-.64.63-.64h9.45a1.22,1.22,0,0,1,.47,0,.46.46,0,0,1,.27.29c0,.71,0,1.43,0,2.15,0,.26-.13.3-.34.3h-6.62c-.36,0-.49.11-.48.48C141,48,141,49.05,141,50.17Z"/><path class="cls-1" d="M136.48,23.66c0,.84,0,1.64,0,2.45,0,.28-.23.21-.39.21h-5.18c-.81,0-.81,0-.81.79v2.95c0,.46.06.52.53.52L137,30.5c.53,0,.66.11.67.64s0,1.12,0,1.67c0,.36-.1.45-.45.45h-7.85c-.71,0-1.43,0-2.15,0-.36,0-.49-.09-.48-.46,0-.87,0-1.73,0-2.59V17.75c0-.65,0-.65.64-.65h9.68c.4,0,.55.1.53.5a17,17,0,0,0,0,1.75c0,.4-.11.53-.52.53-2.15,0-4.3,0-6.45,0-.54,0-.54,0-.54.54v2.67c0,.51.05.54.58.54h5.41Z"/><path class="cls-1" d="M7.69,22.37a35.59,35.59,0,0,1,9.83,1.38,33.35,33.35,0,0,1,10.32,4.82c.64.44,1.25.89,1.88,1.34s.62.5.1,1.05-1.11,1.14-1.68,1.7c-.37.37-.49.36-.92.07-1.09-.74-2.16-1.5-3.27-2.21a24.29,24.29,0,0,0-6.76-2.92,34.67,34.67,0,0,0-8.64-1.47,25.4,25.4,0,0,0-6.39.63c-.55.13-.67,0-.48-.52.39-1.06.79-2.11,1.23-3.14a.82.82,0,0,1,.53-.41c.94-.14,1.89-.24,2.84-.31A13.45,13.45,0,0,1,7.69,22.37Z"/><path class="cls-1" d="M65.05,54.65a37.92,37.92,0,0,1-9.64-1.15,26.05,26.05,0,0,1-5.83-2c-1.5-.76-2.9-1.71-4.33-2.61-1-.61-1.9-1.25-2.84-1.9-.45-.3-.45-.4-.07-.8.55-.57,1.1-1.15,1.66-1.71s.63-.52,1.21-.07a29.94,29.94,0,0,0,6.93,4.16,34.55,34.55,0,0,0,6,1.72,37.12,37.12,0,0,0,4.81.57,34.21,34.21,0,0,0,6.71-.34c.28,0,.56-.13.85-.17s.43.11.32.37c-.45,1.15-.92,2.28-1.41,3.41a.68.68,0,0,1-.5.31C67.36,54.51,65.85,54.6,65.05,54.65Z"/><path class="cls-1" d="M125.22,17.11c-.11.38-.19.71-.3,1q-1.73,4.95-3.47,9.9-.87,2.45-1.72,4.91a.41.41,0,0,1-.46.32H116.4a.4.4,0,0,1-.45-.32q-2.62-7.59-5.26-15.16c-.07-.2-.11-.4-.18-.68h.61c.89,0,1.78,0,2.67,0a.48.48,0,0,1,.56.41c.59,2,1.2,4,1.8,6,.5,1.69,1,3.37,1.52,5.06,0,.11.09.22.16.41a2.92,2.92,0,0,0,.16-.37l3.06-10.11c.11-.35.21-.71.34-1.06,0-.11.18-.28.27-.28C122.82,17.1,124,17.11,125.22,17.11Z"/><path class="cls-1" d="M67.14,48.14a41.92,41.92,0,0,1-7.33-.69,31.28,31.28,0,0,1-8.18-2.63c-1.52-.77-3-1.72-4.42-2.6-.25-.15-.29-.37-.05-.55.85-.67,1.71-1.34,2.6-2,.13-.09.47,0,.68.15,1,.55,2,1.18,3,1.68a29.24,29.24,0,0,0,8.09,2.4,32.22,32.22,0,0,0,6.58.35c1.27-.06,2.54-.21,3.8-.34.32,0,.45,0,.39.39-.2,1-.38,2-.56,3a.49.49,0,0,1-.47.46c-.65.06-1.31.15-2,.19S67.73,48.11,67.14,48.14Z"/><path class="cls-1" d="M5,28.81c1.65.15,3.18.29,4.71.41A34,34,0,0,1,19.9,32a52.16,52.16,0,0,1,4.92,2.67l.13.09c.43.32.44.42,0,.73-.73.57-1.48,1.13-2.21,1.69a.73.73,0,0,1-1,0,26.4,26.4,0,0,0-6.5-2.93A35.76,35.76,0,0,0,9.92,33a27.54,27.54,0,0,0-6.35-.23c-1,.09-2,.23-3.07.36-.37,0-.49,0-.43-.43.09-.66.22-1.3.35-1.95a9.37,9.37,0,0,1,.29-1.16.6.6,0,0,1,.39-.34C2.43,29.07,3.76,28.94,5,28.81Z"/><path class="cls-1" d="M154.52,46.44c-.45,0-.87-.06-1.3-.06-1,0-2.09,0-3.14,0-.31,0-.43-.08-.42-.4,0-.66,0-1.33,0-2,0-.28.13-.38.39-.38h12.3c.57,0,.58,0,.59.58s0,1.17,0,1.75c0,.36-.14.45-.47.45-1.2,0-2.39,0-3.59,0-.94,0-.94,0-.94,1V58c0,.46,0,.92,0,1.39s-.11.49-.49.49c-.76,0-1.51,0-2.27,0s-.69,0-.69-.68V46.84C154.54,46.73,154.53,46.63,154.52,46.44Z"/></svg>